<?xml version="1.0" encoding="UTF-8" standalone="no"?>
<svg
   xmlns:dc="http://purl.org/dc/elements/1.1/"
   xmlns:cc="http://creativecommons.org/ns#"
   xmlns:rdf="http://www.w3.org/1999/02/22-rdf-syntax-ns#"
   xmlns:svg="http://www.w3.org/2000/svg"
   xmlns="http://www.w3.org/2000/svg"
   xmlns:sodipodi="http://sodipodi.sourceforge.net/DTD/sodipodi-0.dtd"
   xmlns:inkscape="http://www.inkscape.org/namespaces/inkscape"
   version="1.1"
   id="svg2"
   xml:space="preserve"
   width="159.57333"
   height="154.12"
   viewBox="0 0 159.57333 154.12"
   sodipodi:docname="FWO.eps"><metadata
     id="metadata8"><rdf:RDF><cc:Work
         rdf:about=""><dc:format>image/svg+xml</dc:format><dc:type
           rdf:resource="http://purl.org/dc/dcmitype/StillImage" /></cc:Work></rdf:RDF></metadata><defs
     id="defs6" /><sodipodi:namedview
     pagecolor="#ffffff"
     bordercolor="#666666"
     borderopacity="1"
     objecttolerance="10"
     gridtolerance="10"
     guidetolerance="10"
     inkscape:pageopacity="0"
     inkscape:pageshadow="2"
     inkscape:window-width="640"
     inkscape:window-height="480"
     id="namedview4" /><g
     id="g10"
     inkscape:groupmode="layer"
     inkscape:label="ink_ext_XXXXXX"
     transform="matrix(1.3333333,0,0,-1.3333333,0,154.12)"><g
       id="g12"
       transform="scale(0.1)"><path
         d="M 182.23,825.969 H 120.582 V 970.668 H 182.23 V 825.969"
         style="fill:#007582;fill-opacity:1;fill-rule:nonzero;stroke:none"
         id="path14" /><path
         d="m 221.543,1155.92 c -21.969,0 -56.949,-4.37 -79.43,-28.53 6.09,-21.99 21.942,-39.92 42.672,-48.69 7.578,21.28 30.582,24.31 45.012,24.31 7.277,0 12.613,-0.97 12.613,-0.97 v 52.42 c 0,0 -8.246,1.46 -20.867,1.46"
         style="fill:#323092;fill-opacity:1;fill-rule:nonzero;stroke:none"
         id="path16" /><path
         d="m 831.211,879.387 c -4.082,-0.813 -8.25,-1.231 -12.578,-1.231 v -0.008 c -36.074,0 -65.332,29.239 -65.332,65.321 0,3.886 0.195,7.695 0.84,11.406 h -51.27 l -0.351,-11.406 c 0,-64.141 51.972,-116.121 116.113,-116.121 7.207,0 14.355,0.769 21.211,2.031 -8.36,14.976 -11.543,32 -8.633,50.008"
         style="fill:#231f20;fill-opacity:1;fill-rule:nonzero;stroke:none"
         id="path18" /><path
         d="m 934.52,943.469 c 0,64.111 -51.993,116.101 -116.114,116.101 -60.281,0 -109.812,-45.93 -115.535,-104.683 h 51.277 c 5.415,30.601 32.09,53.883 64.258,53.883 36.067,0 65.305,-29.239 65.305,-65.301 h 50.809"
         style="fill:#323092;fill-opacity:1;fill-rule:nonzero;stroke:none"
         id="path20" /><path
         d="m 883.711,943.469 v -4.485 c -1.797,-26.504 -19.324,-48.66 -43.379,-57.117 -2.949,-1.047 -5.996,-1.875 -9.121,-2.48 -0.676,-4.121 -1.133,-8.321 -1.133,-12.637 0,-13.574 3.574,-26.316 9.766,-37.371 52.304,9.656 92.226,54.324 94.687,108.848 v 5.242 h -50.82"
         style="fill:#21b5b0;fill-opacity:1;fill-rule:nonzero;stroke:none"
         id="path22" /><path
         d="m 468.352,982.063 h 0.894 c 0,0 2.223,-12.625 5.859,-24.864 l 2.875,-9.597 c 16.059,1.89 30.149,8.671 41.61,18.894 l -25.402,89.024 h -50.782 l -25.277,-89.551 c 11.367,-9.942 25.68,-16.602 41.48,-18.438 l 2.836,9.602 c 3.633,12.234 5.907,24.93 5.907,24.93"
         style="fill:#21b5b0;fill-opacity:1;fill-rule:nonzero;stroke:none"
         id="path24" /><path
         d="m 423.832,825.656 24.465,82.805 c -10.465,11.23 -24.203,19.336 -39.75,22.691 l -7.387,-26.148 c -3.625,-12.238 -5.445,-24.477 -5.445,-24.477 h -0.902 c 0,0 -1.36,12.239 -4.532,24.477 l -7.25,27.332 c -19.945,-2.383 -37.558,-12.395 -49.777,-27.07 l 25.293,-79.61 h 65.285"
         style="fill:#f36917;fill-opacity:1;fill-rule:nonzero;stroke:none"
         id="path26" /><path
         d="m 302.871,999.777 30.375,-94.511 c 12.203,14.66 29.875,24.668 49.789,27.07 l -27.129,100.984 c -4.527,17.67 -13.597,23.58 -32.64,23.58 h -39.45 v -48.98 h 6.356 c 6.797,0 10.43,-1.35 12.699,-8.143"
         style="fill:#21b5b0;fill-opacity:1;fill-rule:nonzero;stroke:none"
         id="path28" /><path
         d="m 620.41,954.875 h -59.305 l -13.039,-49.871 c -2.757,-10.664 -4.148,-21.313 -4.461,-23.879 v -55.469 h 35.75 l 41.055,129.219"
         style="fill:#007582;fill-opacity:1;fill-rule:nonzero;stroke:none"
         id="path30" /><path
         d="M 120.582,1056.91 H 90.0039 v -49.03 h 30.5781 v -37.212 h 61.648 v 37.212 49.03 h -61.648"
         style="fill:#f36917;fill-opacity:1;fill-rule:nonzero;stroke:none"
         id="path32" /><path
         d="m 184.781,1078.71 c -20.734,8.77 -36.582,26.7 -42.672,48.7 -12.785,-13.75 -21.535,-33.84 -21.535,-63.22 v -7.29 h 61.645 v 5.84 c 0,6.25 0.961,11.49 2.562,15.97"
         style="fill:#231f20;fill-opacity:1;fill-rule:nonzero;stroke:none"
         id="path34" /><path
         d="m 543.438,880.52 h -0.899 c 0,0 -1.363,12.246 -4.98,24.484 l -17.969,61.492 c -11.363,-10.137 -25.723,-16.941 -41.61,-18.894 l 36.45,-121.946 h 29.179 v 55.469"
         style="fill:#231f20;fill-opacity:1;fill-rule:nonzero;stroke:none"
         id="path36" /><path
         d="m 182.23,1007.88 h 52.903 v 49.03 H 182.23 v -49.03"
         style="fill:#231f20;fill-opacity:1;fill-rule:nonzero;stroke:none"
         id="path38" /><path
         d="m 614.172,1056.9 c -19.039,0 -28.113,-5.9 -32.649,-23.58 l -20.41,-78.445 h 59.297 l 14.168,44.902 c 2.707,6.793 5.891,8.143 12.688,8.143 h 6.355 v 48.98 h -39.449"
         style="fill:#231f20;fill-opacity:1;fill-rule:nonzero;stroke:none"
         id="path40" /><path
         d="m 459.605,947.523 c -15.742,1.844 -30.113,8.575 -41.46,18.457 l -9.598,-34.828 c 15.516,-3.355 29.297,-11.504 39.75,-22.691 l 11.308,39.062"
         style="fill:#231f20;fill-opacity:1;fill-rule:nonzero;stroke:none"
         id="path42" /><path
         d="m 168.02,603.441 c 32.3,0 58.367,26.825 58.367,61.582 0,33.817 -26.067,59.696 -58.367,59.696 -32.305,0 -58.372,-25.879 -58.372,-59.696 0,-34.757 26.067,-61.582 58.372,-61.582 z m 0,129.024 c 36.835,0 66.867,-29.477 66.867,-67.442 0,-38.918 -30.032,-69.328 -66.867,-69.328 -36.836,0 -66.872,30.41 -66.872,69.328 0,37.965 30.036,67.442 66.872,67.442"
         style="fill:#f36917;fill-opacity:1;fill-rule:nonzero;stroke:none"
         id="path44" /><path
         d="m 320.305,603.441 c 18.511,0 33.625,15.301 33.625,41.747 0,25.5 -13.602,41.75 -32.871,41.75 -17.375,0 -33.621,-12.278 -33.621,-41.934 0,-20.981 11.707,-41.563 32.867,-41.563 z m -40.617,88.973 h 7.933 v -11.34 c 0,-4.344 -0.566,-7.554 -0.566,-7.554 h 0.383 c 0,0 7.742,21.16 34,21.16 25.316,0 40.804,-20.215 40.804,-49.492 0,-30.04 -17.57,-49.493 -41.937,-49.493 -24.559,0 -33.059,21.348 -33.059,21.348 h -0.375 c 0,0 0.75,-3.398 0.75,-8.313 v -48.55 h -7.933 v 132.234"
         style="fill:#f36917;fill-opacity:1;fill-rule:nonzero;stroke:none"
         id="path46" /><path
         d="m 475.41,653.879 c -0.941,23.047 -14.73,33.437 -30.41,33.437 -17.379,0 -33.437,-11.336 -36.836,-33.437 z m -30.222,40.801 c 25.691,0 38.539,-20.215 38.539,-43.067 0,-2.082 -0.383,-5.105 -0.383,-5.105 h -75.746 c 0,-27.383 18.511,-43.067 40.425,-43.067 18.133,0 29.278,11.903 29.278,11.903 l 4.344,-6.614 c 0,0 -13.223,-13.035 -33.622,-13.035 -26.636,0 -48.742,19.27 -48.742,49.309 0,31.922 21.727,49.676 45.907,49.676"
         style="fill:#f36917;fill-opacity:1;fill-rule:nonzero;stroke:none"
         id="path48" /><path
         d="m 527.195,692.414 h 7.934 v -16.621 c 0,-4.348 -0.754,-7.742 -0.754,-7.742 h 0.375 c 3.215,8.875 16.438,26.629 40.051,26.629 24.554,0 31.168,-14.539 31.168,-36.836 v -59.883 h -7.938 v 57.051 c 0,16.433 -2.074,31.926 -23.23,31.926 -17.758,0 -33.438,-12.473 -38.16,-30.04 -1.133,-3.964 -1.512,-8.312 -1.512,-12.843 v -46.094 h -7.934 v 94.453"
         style="fill:#f36917;fill-opacity:1;fill-rule:nonzero;stroke:none"
         id="path50" /><path
         d="m 654.91,692.414 h 7.942 v -94.453 h -7.942 z m -0.75,37.781 h 9.445 v -13.789 h -9.445 v 13.789"
         style="fill:#f36917;fill-opacity:1;fill-rule:nonzero;stroke:none"
         id="path52" /><path
         d="m 713.105,692.414 h 7.93 v -16.621 c 0,-4.348 -0.742,-7.742 -0.742,-7.742 h 0.371 c 3.215,8.875 16.438,26.629 40.051,26.629 24.558,0 31.16,-14.539 31.16,-36.836 v -59.883 h -7.93 v 57.051 c 0,16.433 -2.07,31.926 -23.23,31.926 -17.766,0 -33.442,-12.473 -38.156,-30.04 -1.133,-3.964 -1.524,-8.312 -1.524,-12.843 v -46.094 h -7.93 v 94.453"
         style="fill:#f36917;fill-opacity:1;fill-rule:nonzero;stroke:none"
         id="path54" /><path
         d="m 907.891,646.699 c 0,30.41 -14.356,40.239 -32.871,40.239 -20.215,0 -32.305,-14.739 -32.305,-40.239 0,-25.508 13.984,-40.992 34.199,-40.992 16.621,0 30.977,10.391 30.977,40.992 z m -36.075,-80.664 c 20.204,0 35.887,9.633 35.887,32.492 v 10.957 c 0,4.348 0.754,7.746 0.754,7.746 h -0.371 c -5.676,-11.523 -16.066,-19.269 -31.738,-19.269 -24.563,0 -41.934,19.269 -41.934,48.738 0,29.465 16.055,47.981 40.606,47.981 26.828,0 32.871,-18.516 32.871,-18.516 h 0.379 c 0,0 -0.567,1.328 -0.567,3.594 v 12.656 h 7.934 v -93.887 c 0,-28.906 -20.774,-40.234 -43.254,-40.234 -10.391,0 -20.41,2.648 -29.668,7.363 l 3.789,6.992 c 0,0 11.699,-6.613 25.312,-6.613"
         style="fill:#f36917;fill-opacity:1;fill-rule:nonzero;stroke:none"
         id="path56" /><path
         d="m 106.621,456.242 h 7.934 v -16.621 c 0,-4.348 -0.75,-7.742 -0.75,-7.742 h 0.375 c 3.215,8.875 16.433,26.629 40.05,26.629 24.555,0 31.165,-14.539 31.165,-36.836 v -59.883 h -7.934 v 57.051 c 0,16.433 -2.074,31.926 -23.231,31.926 -17.761,0 -33.441,-12.473 -38.16,-30.039 -1.132,-3.965 -1.515,-8.313 -1.515,-12.844 v -46.094 h -7.934 v 94.453"
         style="fill:#f36917;fill-opacity:1;fill-rule:nonzero;stroke:none"
         id="path58" /><path
         d="m 303.855,417.707 c -0.941,23.047 -14.73,33.438 -30.41,33.438 -17.375,0 -33.433,-11.336 -36.836,-33.438 z m -30.222,40.801 c 25.691,0 38.539,-20.215 38.539,-43.067 0,-2.082 -0.379,-5.105 -0.379,-5.105 h -75.746 c 0,-27.387 18.508,-43.066 40.422,-43.066 18.136,0 29.277,11.902 29.277,11.902 l 4.348,-6.609 c 0,0 -13.223,-13.04 -33.625,-13.04 -26.633,0 -48.739,19.27 -48.739,49.309 0,31.922 21.723,49.676 45.903,49.676"
         style="fill:#f36917;fill-opacity:1;fill-rule:nonzero;stroke:none"
         id="path60" /><path
         d="m 342.984,456.242 h 8.5 l 25.696,-74.051 c 1.508,-4.535 3.211,-10.199 3.211,-10.199 h 0.375 c 0,0 1.699,5.664 3.214,10.199 l 25.879,73.668 h 8.875 l 25.879,-73.668 c 1.516,-4.535 3.215,-10.199 3.215,-10.199 h 0.375 c 0,0 1.516,5.481 3.215,10.199 l 25.691,74.051 h 8.496 l -33.242,-94.453 h -8.5 l -26.261,73.293 c -1.7,4.539 -3.211,10.203 -3.211,10.203 h -0.375 c 0,0 -1.516,-5.664 -3.215,-10.203 L 384.73,361.789 h -8.5 l -33.246,94.453"
         style="fill:#f36917;fill-opacity:1;fill-rule:nonzero;stroke:none"
         id="path62" /><path
         d="m 106.621,257.855 h 7.934 v -54.406 c 0,-4.344 -0.75,-7.742 -0.75,-7.742 h 0.375 c 3.215,8.875 16.433,26.629 40.05,26.629 24.555,0 31.165,-14.539 31.165,-36.836 v -59.879 h -7.934 v 57.047 c 0,16.437 -2.074,31.926 -23.231,31.926 -17.761,0 -33.441,-12.473 -38.16,-30.039 -1.132,-3.965 -1.515,-8.313 -1.515,-12.844 v -46.09 h -7.934 v 132.234"
         style="fill:#f36917;fill-opacity:1;fill-rule:nonzero;stroke:none"
         id="path64" /><path
         d="m 274.391,131.102 c 22.48,0 40.613,18.32 40.613,42.308 0,23.43 -18.133,41.184 -40.613,41.184 -22.481,0 -40.618,-17.754 -40.618,-41.184 0,-23.988 18.137,-42.308 40.618,-42.308 z m 0,91.234 c 27.011,0 48.925,-21.348 48.925,-48.926 0,-28.14 -21.914,-50.058 -48.925,-50.058 -27.012,0 -48.926,21.918 -48.926,50.058 0,27.578 21.914,48.926 48.926,48.926"
         style="fill:#f36917;fill-opacity:1;fill-rule:nonzero;stroke:none"
         id="path66" /><path
         d="m 364.52,220.07 h 7.937 v -17.949 c 0,-4.348 -0.754,-7.742 -0.754,-7.742 h 0.375 c 4.723,14.551 15.305,26.441 30.227,26.441 2.832,0 5.476,-0.562 5.476,-0.562 v -7.934 c 0,0 -2.261,0.371 -4.343,0.371 -14.739,0 -23.989,-12.461 -28.145,-26.441 -2.078,-6.613 -2.836,-13.598 -2.836,-19.836 v -40.797 h -7.937 v 94.449"
         style="fill:#f36917;fill-opacity:1;fill-rule:nonzero;stroke:none"
         id="path68" /><path
         d="m 443.313,220.07 h 7.925 v -94.449 h -7.925 z m -0.758,37.785 h 9.441 v -13.789 h -9.441 v 13.789"
         style="fill:#f36917;fill-opacity:1;fill-rule:nonzero;stroke:none"
         id="path70" /><path
         d="m 491.301,132.039 57.238,71.977 c 3.399,4.343 7.363,8.679 7.363,8.679 v 0.383 c 0,0 -3.398,-0.383 -9.632,-0.383 h -52.516 v 7.375 h 72.922 v -6.425 l -57.43,-71.973 c -3.402,-4.344 -7.558,-8.692 -7.558,-8.692 v -0.371 c 0,0 3.589,0.371 9.828,0.371 h 57.234 v -7.359 h -77.449 v 6.418"
         style="fill:#f36917;fill-opacity:1;fill-rule:nonzero;stroke:none"
         id="path72" /><path
         d="m 649.805,131.102 c 22.48,0 40.617,18.32 40.617,42.308 0,23.43 -18.137,41.184 -40.617,41.184 -22.481,0 -40.617,-17.754 -40.617,-41.184 0,-23.988 18.136,-42.308 40.617,-42.308 z m 0,91.234 c 27.011,0 48.925,-21.348 48.925,-48.926 0,-28.14 -21.914,-50.058 -48.925,-50.058 -27.012,0 -48.926,21.918 -48.926,50.058 0,27.578 21.914,48.926 48.926,48.926"
         style="fill:#f36917;fill-opacity:1;fill-rule:nonzero;stroke:none"
         id="path74" /><path
         d="m 739.934,220.07 h 7.937 v -16.621 c 0,-4.344 -0.762,-7.742 -0.762,-7.742 h 0.379 c 3.215,8.875 16.438,26.629 40.051,26.629 24.551,0 31.172,-14.539 31.172,-36.836 v -59.879 h -7.941 v 57.047 c 0,16.437 -2.079,31.926 -23.231,31.926 -17.754,0 -33.437,-12.473 -38.164,-30.039 -1.133,-3.965 -1.504,-8.313 -1.504,-12.844 v -46.09 h -7.937 v 94.449"
         style="fill:#f36917;fill-opacity:1;fill-rule:nonzero;stroke:none"
         id="path76" /><path
         d="m 862.742,143 c 0,0 10.578,-11.898 29.289,-11.898 11.524,0 21.719,6.039 21.719,17.75 0,23.992 -51.953,17.195 -51.953,47.988 0,16.805 14.18,25.496 30.234,25.496 19.258,0 27.949,-10.203 27.949,-10.203 l -4.714,-6.418 c 0,0 -7.746,8.879 -23.801,8.879 -10.774,0 -21.348,-4.914 -21.348,-17.192 0,-24.558 51.946,-17.195 51.946,-48.55 0,-15.114 -12.844,-25.5 -30.227,-25.5 -22.852,0 -34.191,13.609 -34.191,13.609 l 5.097,6.039"
         style="fill:#f36917;fill-opacity:1;fill-rule:nonzero;stroke:none"
         id="path78" /></g></g></svg>
