<?xml version="1.0" standalone="no"?>
<!DOCTYPE svg PUBLIC "-//W3C//DTD SVG 20010904//EN"
 "http://www.w3.org/TR/2001/REC-SVG-20010904/DTD/svg10.dtd">
<svg version="1.0" xmlns="http://www.w3.org/2000/svg"
 width="2250.000000pt" height="1550.000000pt" viewBox="0 0 2250.000000 1550.000000"
 preserveAspectRatio="xMidYMid meet">
<metadata>
Created by potrace 1.16, written by Peter Selinger 2001-2019
</metadata>
<g transform="translate(0.000000,1550.000000) scale(0.100000,-0.100000)"
fill="#000000" stroke="none">
<path d="M3743 15055 c-13 -9 -23 -20 -23 -26 0 -5 -15 -30 -34 -56 -48 -69
-112 -191 -135 -259 -35 -105 -42 -184 -46 -509 -2 -176 -6 -333 -9 -350 -13
-81 -27 -268 -19 -276 9 -9 1 -130 -21 -309 -9 -69 -20 -206 -26 -305 -6 -99
-18 -209 -26 -245 -9 -36 -22 -110 -31 -165 -8 -55 -18 -125 -23 -155 -26
-171 -30 -225 -25 -345 6 -134 -3 -274 -30 -430 -18 -108 -48 -424 -41 -441 6
-15 -25 -44 -47 -44 -9 0 -34 -24 -56 -54 -23 -30 -45 -57 -51 -61 -16 -10
-12 -25 8 -26 9 -1 -8 -5 -38 -10 -30 -5 -64 -13 -75 -18 -11 -5 -27 -12 -36
-14 -25 -8 -17 -57 14 -91 15 -16 27 -35 27 -42 0 -8 7 -14 15 -14 8 0 15 5
15 10 0 6 8 10 18 10 9 0 36 11 59 24 39 22 63 20 48 -3 -9 -15 14 -24 30 -11
7 6 25 9 40 7 25 -3 26 -7 30 -68 16 -248 28 -539 38 -886 7 -221 15 -405 20
-409 10 -11 8 -459 -5 -729 -5 -126 -12 -295 -14 -374 -1 -79 -8 -176 -14
-215 -7 -48 -8 -81 -1 -98 6 -15 7 -73 4 -136 -6 -103 4 -205 27 -302 5 -19
16 -80 25 -135 10 -55 21 -113 26 -129 5 -16 9 -48 9 -72 0 -31 7 -51 25 -72
19 -22 25 -41 25 -76 0 -40 -3 -46 -21 -46 -16 0 -20 -5 -17 -22 2 -13 9 -22
15 -21 16 3 23 -60 28 -276 3 -106 10 -214 16 -238 7 -32 6 -49 -1 -58 -16
-19 6 -131 33 -167 12 -16 27 -53 32 -81 7 -37 15 -53 28 -55 16 -3 17 1 11
33 -6 36 -6 37 17 25 12 -7 32 -21 42 -31 37 -34 50 3 21 60 -11 22 -17 68
-20 144 -6 171 -21 366 -32 422 -16 73 -15 178 1 173 6 -3 13 -24 15 -49 1
-24 5 -51 8 -59 16 -46 33 72 18 128 -6 21 -8 22 -24 7 -16 -14 -18 -14 -24 0
-3 9 3 22 14 32 16 14 18 25 13 78 -4 45 -1 69 10 92 13 24 14 38 6 64 -6 19
-13 88 -15 154 -3 66 -9 152 -15 190 -5 39 -14 121 -19 183 -5 62 -12 117 -15
121 -9 16 -7 236 3 269 6 18 8 71 5 122 -5 79 -4 90 10 85 23 -9 30 25 22 118
-4 51 -3 93 4 110 7 19 8 73 1 180 -13 200 -15 314 -5 476 7 119 6 134 -8 143
-21 11 -22 32 -2 48 8 7 15 28 15 47 0 20 9 46 20 60 24 31 25 77 4 153 -12
45 -14 74 -7 135 10 94 29 111 39 35 4 -28 9 -49 11 -46 3 3 7 38 9 78 18 374
24 554 19 581 -10 61 -14 387 -5 387 5 0 14 -9 20 -19 22 -43 40 -51 105 -51
74 0 110 13 145 52 l26 28 39 -20 c51 -26 73 -25 115 3 89 60 125 76 289 122
94 26 115 19 131 -47 10 -41 29 -111 70 -253 18 -60 36 -123 40 -140 9 -32 32
-110 56 -190 8 -27 19 -66 24 -85 5 -19 16 -60 24 -90 32 -119 48 -187 56
-240 8 -52 19 -94 57 -215 8 -27 19 -90 23 -140 4 -49 15 -110 25 -135 9 -25
23 -65 30 -90 7 -25 21 -72 30 -105 9 -33 21 -73 25 -90 7 -27 19 -65 50 -170
5 -16 16 -50 25 -75 16 -42 35 -109 54 -190 5 -19 16 -62 26 -95 9 -33 20 -76
25 -95 4 -19 18 -71 30 -115 12 -44 26 -96 30 -115 5 -19 23 -87 40 -150 18
-63 36 -131 40 -150 5 -19 16 -62 25 -95 9 -33 20 -76 24 -95 4 -19 13 -51 19
-70 11 -35 34 -118 53 -195 6 -22 16 -62 24 -90 8 -27 21 -77 29 -110 8 -33
22 -87 31 -120 9 -33 30 -112 47 -175 16 -63 34 -128 38 -145 4 -16 22 -82 38
-145 17 -63 40 -137 51 -163 12 -27 21 -56 21 -65 0 -9 6 -34 14 -57 54 -153
126 -434 146 -569 8 -51 28 -130 95 -371 8 -27 19 -70 26 -95 24 -93 55 -188
80 -245 8 -17 24 -90 69 -305 5 -25 16 -74 25 -110 8 -36 19 -93 25 -127 5
-34 17 -81 26 -105 9 -24 21 -67 27 -96 12 -59 22 -66 32 -22 6 26 -8 257 -20
320 -2 14 -7 52 -10 85 -3 33 -9 92 -15 130 -5 39 -16 133 -25 210 -16 145
-40 313 -55 400 -5 28 -14 86 -20 130 -14 100 -25 166 -45 280 -8 50 -20 117
-25 150 -6 33 -15 80 -20 105 -5 25 -16 83 -25 130 -57 311 -85 447 -129 615
-14 54 -73 298 -112 465 -9 36 -19 81 -24 100 -5 19 -16 67 -25 105 -9 39 -20
84 -25 101 -6 16 -14 50 -19 75 -10 45 -36 156 -52 219 -4 19 -15 62 -23 95
-8 33 -22 87 -31 120 -9 33 -20 76 -24 95 -5 19 -16 60 -24 90 -53 184 -78
280 -84 313 -3 21 -10 40 -14 43 -5 3 -9 14 -9 24 0 11 -6 39 -14 62 -7 24
-21 72 -31 108 -9 36 -21 76 -25 90 -5 14 -16 52 -25 85 -9 33 -22 83 -30 110
-8 28 -22 77 -31 110 -9 33 -20 69 -24 80 -4 11 -16 49 -25 85 -9 36 -21 76
-25 90 -5 14 -16 52 -25 85 -9 33 -23 78 -30 100 -14 43 -19 68 -40 210 -7 50
-20 115 -29 145 -8 30 -27 98 -41 150 -14 52 -33 118 -41 145 -8 28 -19 66
-24 85 -5 19 -16 58 -24 85 -8 28 -22 77 -31 110 -25 88 -32 114 -50 175 -41
136 -40 131 -16 152 13 10 33 18 45 18 12 0 26 4 32 8 5 5 28 14 50 20 54 16
144 105 144 144 0 28 40 68 68 68 9 0 23 6 31 14 15 13 62 40 160 92 24 13 53
24 64 24 12 0 41 17 66 38 25 21 99 73 163 115 138 90 152 101 239 187 36 36
77 73 91 82 14 9 41 41 61 70 19 29 54 70 76 91 102 94 0 95 -274 4 -66 -22
-132 -48 -146 -58 -15 -10 -76 -44 -135 -75 -97 -50 -277 -168 -317 -209 -9
-8 -27 -15 -40 -15 -14 0 -62 -22 -106 -50 -44 -27 -83 -50 -85 -50 -3 0 -22
-11 -42 -25 -20 -14 -45 -25 -56 -25 -10 0 -36 -11 -58 -25 -22 -14 -43 -25
-46 -25 -4 0 -27 -16 -51 -36 -49 -41 -67 -36 -78 19 -3 18 -12 59 -19 92 -21
92 -33 160 -51 270 -8 55 -20 125 -25 156 -6 30 -10 66 -10 80 0 13 -7 42 -15
64 -8 22 -14 72 -15 110 0 39 -5 90 -11 115 -5 24 -14 74 -19 110 -5 36 -16
106 -25 155 -9 50 -20 114 -25 143 -5 29 -13 74 -19 100 -5 26 -17 83 -26 127
-9 44 -21 93 -26 109 -5 16 -9 39 -9 51 0 13 -6 45 -14 71 -8 27 -22 83 -31
124 -10 41 -21 89 -25 105 -5 17 -16 59 -25 95 -9 36 -20 79 -25 95 -5 17 -11
46 -15 65 -3 19 -10 46 -14 60 -8 24 -33 113 -51 175 -27 97 -47 164 -85 280
-24 72 -47 141 -53 155 -5 14 -18 45 -27 70 -52 136 -193 472 -214 510 -11 21
-71 24 -98 5z m152 -1155 c25 -70 39 -116 45 -150 4 -19 17 -82 29 -140 11
-58 27 -136 35 -175 44 -210 87 -517 127 -885 6 -58 22 -152 35 -210 14 -58
29 -132 35 -165 5 -33 14 -76 19 -95 5 -19 23 -98 41 -175 20 -88 38 -146 49
-155 28 -24 49 -78 96 -240 9 -30 21 -63 26 -74 10 -19 -3 -36 -29 -36 -7 0
-27 -16 -45 -35 -27 -30 -36 -35 -61 -29 -19 4 -32 2 -37 -6 -13 -21 -112 -49
-173 -50 -44 0 -67 -6 -89 -21 -26 -19 -33 -20 -72 -9 -44 12 -136 7 -182 -10
-14 -6 -41 -10 -59 -10 -37 0 -40 4 -48 85 -3 22 -10 67 -17 99 -13 65 -11 88
15 156 19 52 50 191 59 270 4 30 11 75 16 100 5 25 12 191 16 370 3 179 7 341
9 360 1 19 5 87 9 150 9 159 31 393 67 695 6 55 13 158 16 229 7 176 37 244
68 156z"/>
<path d="M18856 3665 c-135 -48 -170 -218 -63 -312 66 -58 139 -65 217 -22 72
41 108 140 81 222 -15 45 -78 102 -128 116 -48 14 -59 13 -107 -4z"/>
<path d="M13300 3135 l0 -496 -97 99 c-114 114 -196 167 -333 213 -86 29 -109
33 -240 37 -164 4 -235 -7 -366 -57 -207 -80 -426 -295 -510 -501 -80 -196
-89 -469 -22 -663 92 -270 307 -493 562 -584 128 -45 345 -58 482 -30 161 34
302 110 435 235 l89 84 0 -146 0 -146 115 0 115 0 0 1225 0 1225 -115 0 -115
0 0 -495z m-460 -394 c163 -51 316 -184 399 -348 54 -108 75 -202 74 -338 -1
-215 -58 -360 -198 -501 -66 -67 -96 -89 -175 -128 -52 -25 -124 -53 -160 -62
-85 -22 -235 -22 -325 0 -312 75 -535 367 -535 700 0 115 17 198 59 290 107
236 318 392 560 414 99 9 220 -2 301 -27z"/>
<path d="M6248 3427 c-36 -78 -290 -614 -562 -1190 -273 -577 -496 -1050 -496
-1053 0 -2 60 -4 133 -4 l132 0 185 393 186 392 514 3 515 2 189 -395 188
-395 130 0 c71 0 128 4 126 9 -1 4 -252 542 -557 1195 l-554 1186 -31 0 c-30
0 -33 -4 -98 -143z m301 -797 l200 -425 -401 -3 c-221 -1 -403 -1 -404 1 -2 2
87 195 198 430 111 234 203 425 204 424 1 -1 92 -193 203 -427z"/>
<path d="M8340 2971 c-373 -83 -634 -327 -732 -686 -25 -93 -34 -282 -19 -380
68 -416 414 -727 853 -764 261 -22 517 37 699 159 67 45 179 152 217 207 l22
31 -90 57 -90 57 -68 -69 c-111 -112 -219 -175 -368 -214 -110 -29 -298 -29
-407 0 -212 56 -380 190 -471 377 -57 115 -71 181 -71 324 0 213 55 342 209
495 74 74 107 99 176 132 106 52 187 72 315 80 246 14 458 -67 619 -237 l66
-70 90 56 90 56 -29 42 c-112 163 -284 274 -519 338 -113 30 -374 35 -492 9z"/>
<path d="M10290 2975 c-308 -69 -574 -312 -670 -612 -57 -177 -60 -379 -9
-564 87 -317 364 -579 683 -645 84 -18 267 -20 354 -4 178 32 364 137 492 277
l50 55 0 -151 0 -151 115 0 115 0 0 885 0 885 -115 0 -115 0 0 -161 0 -161
-52 63 c-104 123 -247 220 -403 269 -91 29 -343 38 -445 15z m441 -235 c217
-73 392 -263 450 -487 20 -79 28 -275 14 -340 -76 -343 -346 -564 -690 -565
-270 -1 -503 147 -624 396 -105 217 -101 442 11 660 80 156 246 293 413 342
123 36 308 33 426 -6z"/>
<path d="M14500 2976 c-245 -51 -456 -212 -588 -446 -149 -266 -160 -613 -26
-883 105 -211 268 -372 455 -446 189 -75 455 -85 669 -24 198 56 409 232 517
431 l33 59 -96 50 -97 51 -58 -88 c-108 -161 -251 -265 -426 -311 -97 -25
-270 -27 -358 -4 -178 46 -335 176 -418 345 -48 98 -77 210 -77 295 l0 45 795
0 c629 0 795 3 795 13 0 50 -24 205 -41 267 -83 307 -310 540 -614 631 -90 27
-364 36 -465 15z m378 -222 c80 -20 207 -84 269 -133 29 -23 72 -68 96 -101
46 -61 105 -187 114 -246 l6 -34 -657 0 -656 0 6 28 c14 53 71 180 108 235
144 217 441 321 714 251z"/>
<path d="M16545 2974 c-108 -26 -221 -90 -306 -174 -42 -41 -88 -91 -102 -110
l-27 -35 0 50 c0 28 -3 94 -7 148 l-6 97 -109 0 -108 0 0 -885 0 -885 109 0
109 0 5 483 c3 280 10 511 16 552 32 197 74 290 180 395 121 121 236 166 400
158 184 -9 308 -113 357 -299 15 -56 18 -141 21 -676 l4 -613 114 0 113 0 5
493 c5 620 16 696 124 859 71 109 167 180 297 219 96 30 237 24 319 -14 111
-51 189 -150 218 -278 8 -37 13 -247 16 -666 l5 -613 114 0 115 0 -4 618 c-3
583 -5 622 -25 710 -51 227 -174 381 -361 450 -81 30 -247 41 -344 22 -182
-35 -367 -168 -472 -339 -21 -34 -39 -61 -41 -61 -1 0 -23 43 -48 95 -74 157
-194 255 -363 299 -76 20 -236 20 -318 0z"/>
<path d="M19978 2980 c-263 -45 -496 -228 -628 -495 -72 -145 -94 -246 -94
-425 0 -213 42 -358 154 -528 178 -269 414 -393 750 -394 137 0 220 12 320 44
208 67 363 194 495 408 l45 74 -96 52 -97 52 -50 -76 c-79 -121 -177 -212
-289 -265 -119 -58 -206 -78 -327 -79 -124 -1 -197 15 -296 62 -207 99 -358
324 -373 558 l-5 82 797 0 796 0 -5 38 c-2 20 -7 65 -10 100 -8 87 -40 203
-79 288 -124 267 -364 453 -650 503 -68 12 -288 13 -358 1z m360 -226 c156
-40 298 -137 384 -262 33 -48 84 -166 94 -218 l6 -34 -656 0 c-361 0 -656 4
-656 8 0 22 42 129 77 194 136 259 450 390 751 312z"/>
<path d="M18800 2065 l0 -885 115 0 115 0 0 885 0 885 -115 0 -115 0 0 -885z"/>
</g>
</svg>
