<?xml version="1.0" encoding="utf-8"?>
<!-- Generator: Adobe Illustrator 21.1.0, SVG Export Plug-In . SVG Version: 6.00 Build 0)  -->
<svg version="1.1" id="LOGO" xmlns="http://www.w3.org/2000/svg" xmlns:xlink="http://www.w3.org/1999/xlink" x="0px" y="0px"
	 viewBox="0 0 2290 1020" style="enable-background:new 0 0 2290 1020;" xml:space="preserve">
<style type="text/css">
	.st0{fill:#003399;}
	.st1{fill:#FF6600;}
</style>
<polygon class="st0" points="1071.92,382.47 1130.07,242.48 1114.73,242.48 1065.29,365.04 1016.23,242.48 1000.88,242.48 
	1058.66,382.47 "/>
<path class="st0" d="M1165.68,255.17h22.16c10.99,0,22.35,0,31.64,6.63c7.96,5.49,13.07,15.34,13.07,25
	c0,12.5-6.63,23.11-18.19,28.41c-9.28,4.17-20.65,3.79-30.5,3.79h-4.17l47.55,63.46h17.43l-39.4-52.28
	c22.73-0.57,41.29-19.13,41.29-42.05c0-16.29-7.58-30.69-21.78-38.83c-11.74-6.63-26.52-6.82-39.78-6.82h-33.34v139.99h14.02V255.17
	z"/>
<rect x="1271.94" y="242.48" class="st0" width="14.02" height="139.99"/>
<path class="st0" d="M1345.06,384.93c11.56,0,22.54-4.55,29.93-13.83c7.39-9.09,6.82-17.05,7.58-28.03V242.48h-14.02v96.42
	c0,5.87,0.19,13.07-1.7,18.56c-3.22,8.71-11.18,14.02-20.46,14.02c-13.26,0-23.87-8.9-24.82-22.16h-13.83
	C1308.31,369.59,1324.6,384.93,1345.06,384.93z"/>
<polygon class="st0" points="1493.19,369.78 1430.68,369.78 1430.68,318.25 1491.11,318.25 1491.11,305.56 1430.68,305.56 
	1430.68,255.17 1493.19,255.17 1493.19,242.48 1416.66,242.48 1416.66,382.47 1493.19,382.47 "/>
<path class="st0" d="M1094.65,528.28c0,10.99-0.95,22.16-7.77,31.26c-5.87,8.15-15.91,12.69-25.76,12.69
	c-10.99,0-21.41-5.3-27.28-14.59c-5.49-8.71-6.44-19.32-6.44-29.36v-85.05h-14.02v85.05c0,14.77,1.52,28.79,11.18,40.73
	c8.9,10.8,22.54,16.67,36.56,16.67c14.4,0,28.41-6.25,37.13-17.81c9.09-11.74,10.42-25.38,10.42-39.59v-85.05h-14.02V528.28z"/>
<polygon class="st0" points="1254.14,443.22 1240.13,443.22 1240.13,559.34 1161.7,443.22 1142.76,443.22 1142.76,583.21 
	1156.78,583.21 1156.78,460.08 1240.13,583.21 1254.14,583.21 "/>
<rect x="1288.23" y="443.22" class="st0" width="14.02" height="139.99"/>
<polygon class="st0" points="1388.25,565.78 1339.19,443.22 1323.84,443.22 1381.62,583.21 1394.88,583.21 1453.03,443.22 
	1437.69,443.22 "/>
<polygon class="st0" points="1551.15,455.91 1551.15,443.22 1474.62,443.22 1474.62,583.21 1551.15,583.21 1551.15,570.52 
	1488.64,570.52 1488.64,518.99 1549.07,518.99 1549.07,506.3 1488.64,506.3 1488.64,455.91 "/>
<path class="st0" d="M1676.36,488.87c0-16.29-7.58-30.69-21.78-38.83c-11.74-6.63-26.52-6.82-39.78-6.82h-33.34v139.99h14.02v-127.3
	h22.16c10.99,0,22.35,0,31.63,6.63c7.96,5.49,13.07,15.34,13.07,25c0,12.5-6.63,23.11-18.19,28.41c-9.28,4.17-20.65,3.79-30.5,3.79
	h-4.17l47.55,63.46h17.43l-39.4-52.28C1657.8,530.36,1676.36,511.79,1676.36,488.87z"/>
<path class="st0" d="M1764.44,515.39c-8.14-7.39-16.86-9.09-26.9-11.93c-13.64-3.79-27.66-7.77-27.66-24.63
	c0-13.26,10.42-24.44,24.06-24.44c14.4,0,24.63,10.23,25.57,24.44h14.59c0.19-21.41-17.24-37.89-38.45-37.89
	c-21.97,0-39.78,15.15-39.78,37.7c0,10.04,3.98,19.51,11.74,26.14c7.01,6.06,15.91,8.34,24.63,10.61
	c7.96,2.08,15.15,3.98,21.59,9.28c5.87,4.74,9.66,12.31,9.66,19.89c0,16.1-13.07,27.66-28.98,27.66
	c-15.72,0-27.66-12.88-28.04-28.22h-14.96c-0.19,24.44,19.51,41.67,43.38,41.67c22.73,0,42.62-17.81,42.62-40.92
	C1777.51,533.58,1772.78,522.59,1764.44,515.39z"/>
<rect x="1801.37" y="443.22" class="st0" width="14.02" height="139.99"/>
<polygon class="st0" points="1836.42,455.91 1868.62,455.91 1868.62,583.21 1882.64,583.21 1882.64,455.91 1914.46,455.91 
	1914.46,443.22 1836.42,443.22 "/>
<polygon class="st0" points="1935.48,583.21 2012.01,583.21 2012.01,570.52 1949.5,570.52 1949.5,518.99 2009.93,518.99 
	2009.93,506.3 1949.5,506.3 1949.5,455.91 2012.01,455.91 2012.01,443.22 1935.48,443.22 "/>
<rect x="2042.32" y="443.22" class="st0" width="14.02" height="139.99"/>
<polygon class="st0" points="2077.36,443.22 2077.36,455.91 2109.56,455.91 2109.56,583.21 2123.58,583.21 2123.58,455.91 
	2155.4,455.91 2155.4,443.22 "/>
<path class="st0" d="M1078.93,709.13c9.66-6.82,15.53-15.91,15.53-28.03c0-12.12-6.44-23.49-16.48-30.12
	c-9.66-6.25-20.65-7.01-31.82-7.01h-32.77v139.99h32.96c14.02-0.19,26.14,0.19,38.45-7.58c10.8-6.82,17.24-19.32,17.24-32.01
	C1102.04,728.26,1093.7,715.19,1078.93,709.13z M1027.4,656.65h16.29c8.33-0.38,18.37-0.19,25.57,4.17
	c6.44,3.98,11.18,11.74,11.18,19.32c0,7.77-4.55,15.91-11.37,19.51c-7.96,4.36-17.62,4.17-26.52,4.17h-15.15V656.65z
	 M1074.19,767.09c-8.52,4.36-20.08,4.36-29.55,4.17h-17.24v-54.74h14.78c9.28,0,19.51-0.19,28.22,2.84
	c10.8,3.79,17.62,13.26,17.43,25.19C1088.02,753.45,1082.15,762.92,1074.19,767.09z"/>
<path class="st0" d="M1222.32,689.62c0-16.29-7.58-30.69-21.78-38.83c-11.74-6.63-26.52-6.82-39.78-6.82h-33.34v139.99h14.02v-127.3
	h22.16c10.99,0,22.35,0,31.63,6.63c7.96,5.49,13.07,15.34,13.07,25c0,12.5-6.63,23.11-18.19,28.41c-9.28,4.17-20.65,3.79-30.5,3.79
	h-4.17l47.55,63.46h17.43l-39.4-52.28C1203.75,731.1,1222.32,712.54,1222.32,689.62z"/>
<path class="st0" d="M1328.96,729.02c0,10.99-0.95,22.16-7.77,31.26c-5.87,8.15-15.91,12.69-25.76,12.69
	c-10.99,0-21.4-5.3-27.28-14.59c-5.49-8.71-6.44-19.32-6.44-29.36v-85.05h-14.02v85.05c0,14.77,1.52,28.79,11.18,40.73
	c8.9,10.8,22.54,16.67,36.56,16.67c14.4,0,28.41-6.25,37.13-17.81c9.09-11.74,10.42-25.38,10.42-39.59v-85.05h-14.02V729.02z"/>
<path class="st0" d="M1439.77,716.13c-8.15-7.39-16.86-9.09-26.9-11.93c-13.64-3.79-27.66-7.77-27.66-24.63
	c0-13.26,10.42-24.44,24.06-24.44c14.4,0,24.63,10.23,25.57,24.44h14.59c0.19-21.41-17.24-37.89-38.45-37.89
	c-21.97,0-39.78,15.15-39.78,37.7c0,10.04,3.98,19.51,11.74,26.14c7.01,6.06,15.91,8.34,24.63,10.61c7.96,2.08,15.15,3.98,21.6,9.28
	c5.87,4.74,9.66,12.31,9.66,19.89c0,16.1-13.07,27.66-28.98,27.66c-15.72,0-27.66-12.88-28.04-28.22h-14.96
	c-0.19,24.44,19.51,41.67,43.38,41.67c22.73,0,42.62-17.81,42.62-40.92C1452.84,734.32,1448.11,723.33,1439.77,716.13z"/>
<path class="st0" d="M1539.41,716.13c-8.15-7.39-16.86-9.09-26.9-11.93c-13.64-3.79-27.66-7.77-27.66-24.63
	c0-13.26,10.42-24.44,24.06-24.44c14.4,0,24.63,10.23,25.57,24.44h14.59c0.19-21.41-17.24-37.89-38.45-37.89
	c-21.97,0-39.78,15.15-39.78,37.7c0,10.04,3.98,19.51,11.74,26.14c7.01,6.06,15.91,8.34,24.63,10.61
	c7.96,2.08,15.15,3.98,21.59,9.28c5.87,4.74,9.66,12.31,9.66,19.89c0,16.1-13.07,27.66-28.98,27.66
	c-15.72,0-27.66-12.88-28.03-28.22h-14.96c-0.19,24.44,19.51,41.67,43.38,41.67c22.73,0,42.62-17.81,42.62-40.92
	C1552.48,734.32,1547.74,723.33,1539.41,716.13z"/>
<polygon class="st0" points="1576.34,783.95 1652.87,783.95 1652.87,771.26 1590.36,771.26 1590.36,719.73 1650.78,719.73 
	1650.78,707.04 1590.36,707.04 1590.36,656.65 1652.87,656.65 1652.87,643.96 1576.34,643.96 "/>
<polygon class="st0" points="1697.19,643.96 1683.17,643.96 1683.17,783.95 1755.16,783.95 1755.16,771.26 1697.19,771.26 "/>
<path class="st0" d="M137.47,340.64l89.89,253.8h0.28l76.53-223.59c0,0,0.11-0.32,0.29-0.78c4.98-17.01,20.79-29.43,39.41-29.43
	l19.19-0.01l58.88,0.01V572.8c0.28,11.35,1.51,22.36,6.65,32.64c8.33,14.65,23.72,25.12,41.83,27.26c0.62,0.07,1.24,0.13,1.86,0.19
	c1.65,0.14,3.31,0.22,5,0.22h0h0c1.68,0,3.35-0.08,5-0.22c0.62-0.05,1.25-0.11,1.86-0.19c18.11-2.15,33.51-12.62,41.83-27.26
	c5.14-10.28,6.36-21.29,6.65-32.64V340.64h61.48l0,219.07c0,24.66-1.53,48.3-11.49,69.57c-18.17,36.01-56.03,61.28-100.26,63.08
	c-1.68,0.07-3.37,0.11-5.07,0.11h0h0c-1.7,0-3.39-0.04-5.07-0.11c-44.23-1.8-82.1-27.07-100.26-63.08
	c-9.96-21.28-11.49-44.92-11.49-69.57l0-155.13h-0.5l-0.7,2.14L259.04,683.88h-62.02l-59.55-161.17l0-68.28v425.72h735.67V144.49
	H137.47V340.64z M613.28,340.64l79.78-0.14c31.15,0,62.75-1.4,91.57,13.01c28.36,14.41,48.34,45.09,48.34,77.16
	c0,26.96-12.55,53.46-37.65,65.54c37.65,12.09,58.57,44.16,58.57,83.2c0,33.47-15.34,61.83-41.83,81.81
	c-27.43,19.99-62.29,21.85-95.29,22.77l-103.55,0L613.28,340.64z M227.5,590.69L227.5,590.69l-0.01,0.02L227.5,590.69z"/>
<path class="st0" d="M749.78,467.4c12.09-5.58,19.53-18.6,19.53-31.61c0-13.95-8.83-25.1-21.38-30.21
	c-9.42-4.07-28.35-3.25-41.83-3.25l-28.95-0.05v70.31l29.42-0.07C720.03,472.51,737.69,472.98,749.78,467.4z"/>
<path class="st0" d="M773.49,610.11c11.62-7.9,16.73-19.06,16.73-33.47c0-16.73-7.9-26.96-22.78-35.33
	c-14.41-7.44-29.75-6.97-45.09-6.97l-45.22,0v87.83l43.82,0.02C739.55,622.19,756.75,621.27,773.49,610.11z"/>
<polygon class="st1" points="68.4,340.64 137.47,522.8 137.47,408.92 137.47,340.64 "/>
</svg>
